<svg xmlns="http://www.w3.org/2000/svg" width="100" height="100" viewBox="0 0 100 100"><title>BinaryCode</title><defs><linearGradient id="a" x1="100%" x2="0%" y1="0%" y2="0%"><stop offset="0%" stop-color="#762b8a"/><stop offset="100%" stop-color="#a61f8c"/></linearGradient></defs><g fill="none" fill-rule="evenodd"><path fill="#3f454f" fill-rule="nonzero" d="M50.69 23.798c6.047 0 10.058-5.324 10.058-11.898v-.066C60.748 5.26 56.77 0 50.755 0c-6.048 0-10.06 5.325-10.06 11.898v.067c0 6.574 3.946 11.833 9.994 11.833m.066-3.648c-3.582 0-5.883-3.715-5.883-8.252v-.065c0-4.569 2.267-8.184 5.817-8.184s5.884 3.714 5.884 8.25v.066c0 4.536-2.235 8.185-5.817 8.185m19.023 3.254h4.01V.229h-2.827L64.782 2.2l.855 3.288 4.142-1.15zM10.993 56.668c6.048 0 10.058-5.324 10.058-11.898v-.067c0-6.574-3.978-11.833-9.993-11.833C5.01 32.87 1 38.196 1 44.77v.065c0 6.574 3.944 11.833 9.993 11.833m.066-3.648c-3.584 0-5.884-3.714-5.884-8.25v-.067c0-4.568 2.267-8.184 5.817-8.184s5.884 3.715 5.884 8.25v.066c0 4.536-2.235 8.185-5.817 8.185m19.023 3.254h4.011V33.1h-2.827l-6.18 1.973.855 3.287 4.142-1.15zm20.528.394c6.047 0 10.057-5.324 10.057-11.898v-.067c0-6.574-3.976-11.833-9.993-11.833-6.047 0-10.058 5.326-10.058 11.9v.065c0 6.574 3.945 11.833 9.994 11.833m.065-3.648c-3.583 0-5.884-3.714-5.884-8.25v-.067c0-4.568 2.268-8.184 5.818-8.184s5.884 3.715 5.884 8.25v.066c0 4.536-2.235 8.185-5.818 8.185m44.289 3.254h4.01V33.1h-2.827l-6.179 1.973.855 3.287 4.14-1.15zM49.89 89.144h4.01V65.971h-2.827l-6.18 1.972.856 3.287 4.141-1.15zm20.528.395c6.047 0 10.058-5.325 10.058-11.899v-.066c0-6.574-3.977-11.833-9.993-11.833-6.048 0-10.058 5.325-10.058 11.9v.064c0 6.575 3.945 11.834 9.993 11.834m.065-3.648c-3.582 0-5.884-3.715-5.884-8.25v-.067c0-4.57 2.268-8.184 5.819-8.184 3.55 0 5.883 3.714 5.883 8.25v.065c0 4.537-2.235 8.186-5.818 8.186"/><path fill="url(#a)" d="M33.173 34.29h-4.01V15.224l-4.143 1.15-.854-3.287 6.18-1.971h2.827zm41.701 33.265c6.048 0 10.059-5.325 10.059-11.9v-.064c0-6.575-3.978-11.834-9.993-11.834-6.048 0-10.058 5.325-10.058 11.899v.065c0 6.574 3.944 11.834 9.992 11.834m.066-3.649c-3.582 0-5.883-3.714-5.883-8.25v-.065c0-4.57 2.267-8.186 5.817-8.186s5.884 3.715 5.884 8.25v.066c0 4.536-2.235 8.185-5.818 8.185M28.498 100c6.049 0 10.06-5.324 10.06-11.898v-.067c0-6.574-3.979-11.833-9.994-11.833-6.047 0-10.058 5.326-10.058 11.9v.065C18.506 94.74 22.45 100 28.5 100m.065-3.648c-3.582 0-5.883-3.714-5.883-8.25v-.067c0-4.569 2.268-8.184 5.818-8.184s5.883 3.714 5.883 8.25v.066c0 4.536-2.234 8.185-5.817 8.185" transform="translate(1)"/></g></svg>