<svg xmlns="http://www.w3.org/2000/svg" width="100" height="100" viewBox="0 0 100 100"><title>ClipboardChecklist</title><defs><linearGradient id="a" x1="96.875%" x2="3.125%" y1="5.893%" y2="5.893%"><stop offset="0%" stop-color="#762b8a"/><stop offset="100%" stop-color="#a61f8c"/></linearGradient></defs><g fill="none" transform="translate(12)"><path fill="#3f454f" d="M66.483 13.937H50.654c6.994 0 12.664 5.505 12.664 12.295H12.664c0-6.79 5.67-12.295 12.663-12.295H9.498a9.65 9.65 0 0 0-6.716 2.7A9.1 9.1 0 0 0 0 23.16v67.62c.001 5.092 4.253 9.22 9.498 9.221h56.985c2.52 0 4.935-.971 6.717-2.7a9.1 9.1 0 0 0 2.781-6.522v-67.62c-.002-5.092-4.253-9.22-9.498-9.22M18.995 83.094c-1.92 0-3.653-1.123-4.387-2.846a4.51 4.51 0 0 1 1.03-5.023c1.358-1.318 3.4-1.713 5.174-1.001s2.932 2.394 2.932 4.259a4.55 4.55 0 0 1-1.388 3.264 4.82 4.82 0 0 1-3.36 1.347m0-18.443c-1.922.002-3.654-1.122-4.388-2.845a4.51 4.51 0 0 1 1.03-5.023c1.358-1.318 3.4-1.713 5.174-1.001 1.775.714 2.932 2.395 2.932 4.26a4.53 4.53 0 0 1-1.388 3.263 4.82 4.82 0 0 1-3.36 1.346m0-18.442c-1.922.002-3.654-1.122-4.388-2.845a4.51 4.51 0 0 1 1.03-5.025c1.357-1.318 3.4-1.713 5.174-1s2.932 2.395 2.932 4.26a4.53 4.53 0 0 1-1.388 3.264 4.82 4.82 0 0 1-3.36 1.346M63.318 80.02c0 .408-.167.799-.464 1.087-.296.288-.7.45-1.119.45H33.242a1.6 1.6 0 0 1-1.12-.45 1.5 1.5 0 0 1-.463-1.087v-3.074c0-.848.708-1.536 1.583-1.536h28.493c.42 0 .823.161 1.12.45.296.288.463.679.463 1.086zm0-18.442c0 .408-.167.799-.464 1.087-.296.288-.7.45-1.119.45H33.242a1.6 1.6 0 0 1-1.12-.45 1.5 1.5 0 0 1-.463-1.087v-3.074c0-.848.708-1.536 1.583-1.536h28.493c.42 0 .823.161 1.12.45.296.288.463.679.463 1.086zm0-18.442c0 .408-.167.799-.464 1.087-.296.288-.7.45-1.119.45H33.242a1.6 1.6 0 0 1-1.12-.45 1.5 1.5 0 0 1-.463-1.087v-3.074c0-.407.167-.798.463-1.086s.7-.45 1.12-.45h28.493c.42 0 .822.161 1.12.45.296.288.463.679.463 1.086z"/><path fill="url(#a)" stroke="#fff" stroke-width="3" d="M10.975 26.232v1.64h54.031v-1.64c0-7.095-5.49-13.056-12.752-13.847C51.44 5.333 45.3 0 37.99 0S24.54 5.333 23.728 12.385c-7.262.79-12.753 6.752-12.753 13.847Z"/><ellipse cx="37.991" cy="13.664" fill="#fff" rx="4.503" ry="4.371"/><path fill="#bfc0ce" d="M16.463 74.651a4.83 4.83 0 0 1 2.638-.777 4.8 4.8 0 0 1 3.363 1.346 4.53 4.53 0 0 1 1.386 3.265c.001 1.865-1.157 3.546-2.932 4.259-2.255.897-4.843-.007-5.992-2.093-1.149-2.087-.485-4.679 1.537-6m0-18.442a4.83 4.83 0 0 1 2.638-.777 4.8 4.8 0 0 1 3.363 1.346 4.53 4.53 0 0 1 1.386 3.265c.001 1.865-1.157 3.546-2.932 4.259-2.255.897-4.843-.007-5.992-2.093-1.149-2.087-.485-4.679 1.537-6m0-18.442a4.83 4.83 0 0 1 2.638-.777 4.8 4.8 0 0 1 3.363 1.346 4.53 4.53 0 0 1 1.386 3.265c0 1.864-1.158 3.545-2.932 4.259-2.255.897-4.843-.007-5.992-2.093-1.149-2.087-.485-4.679 1.537-6"/></g></svg>