<svg xmlns="http://www.w3.org/2000/svg" width="100" height="100" viewBox="0 0 100 100"><title>Globe</title><defs><linearGradient id="a" x1="97.191%" x2="2.809%" y1="2.809%" y2="2.809%"><stop offset="0%" stop-color="#762b8a"/><stop offset="100%" stop-color="#a61f8c"/></linearGradient></defs><g fill="none" fill-rule="evenodd" transform="translate(3.738 3.738)"><path fill="#3f454f" d="M37.658 18.524c-1.654 3.633-2.971 7.9-3.898 12.688a7 7 0 0 0-.06.29l-.016.084a51 51 0 0 0-.13.697h27.244a84 84 0 0 0-.2-1.071c-.93-4.788-2.237-9.056-3.897-12.688-1.523-3.343-3.319-6.014-5.174-7.731-1.5-1.386-2.965-2.092-4.35-2.092-1.387 0-2.854.706-4.345 2.092-1.862 1.717-3.645 4.388-5.174 7.73m46.699 18.724H66.516c.347 3.299.52 6.613.517 9.93a94 94 0 0 1-.517 9.929h17.84a38.7 38.7 0 0 0 0-19.858M21.673 18.37a38.5 38.5 0 0 1 15.017-8.22c-3.742 5.12-6.653 12.9-8.177 22.135h-16.82a38.5 38.5 0 0 1 9.979-13.914M56.7 75.83c1.66-3.632 2.966-7.902 3.898-12.687l.2-1.073H33.553q.094.539.199 1.073c.93 4.785 2.237 9.055 3.898 12.687 1.523 3.341 3.32 6.015 5.173 7.73 1.5 1.39 2.964 2.092 4.352 2.092s2.851-.703 4.35-2.091c1.856-1.716 3.652-4.39 5.175-7.73M27.836 37.247a94 94 0 0 0-.518 9.928 95 95 0 0 0 .52 9.93H9.997a38.7 38.7 0 0 1 0-19.858zM11.693 62.07A38.57 38.57 0 0 0 36.69 84.2c-3.742-5.119-6.653-12.901-8.183-22.135zm51.64-40.242a60 60 0 0 0-.75-2.156q-.75-2.027-1.674-3.983a34.7 34.7 0 0 0-3.249-5.54 38.58 38.58 0 0 1 25.005 22.134H65.844l-.103-.61-.043-.251a85 85 0 0 0-.67-3.357 69 69 0 0 0-1.229-4.741q-.225-.751-.466-1.496m2.335 41.26a80 80 0 0 1-.675 3.347 70 70 0 0 1-.911 3.61q-.14.49-.283.979a57 57 0 0 1-1.75 5.03 54 54 0 0 1-.647 1.527q-.193.441-.4.876-.193.417-.393.817a38 38 0 0 1-1.585 2.883q-.325.541-.673 1.051-.345.51-.69.993A38.57 38.57 0 0 0 82.658 62.07H65.837a35 35 0 0 1-.169 1.017m-4.15-5.981H32.833a89.7 89.7 0 0 1 0-19.858h28.685a89.3 89.3 0 0 1 0 19.858"/><circle cx="46.729" cy="46.729" r="46.729" stroke="url(#a)" stroke-width="5"/></g></svg>