<svg xmlns="http://www.w3.org/2000/svg" width="101" height="100" viewBox="0 0 101 100"><title>IDPassport</title><g fill="none"><path fill="#bfc0ce" d="M25.49 87.64c-3.678 0-6.13-2.697-6.13-6.742s3.065-6.74 6.13-6.74h61.184c-.37 3.42-.337 10.191.1 13.482z"/><path fill="#3f454f" d="M25.78 75h64.165a4.696 4.696 0 0 0 4.695-4.688V6.25c0-1.658-.66-3.248-1.833-4.42A6.27 6.27 0 0 0 88.381 0H25.78A18.8 18.8 0 0 0 12.5 5.492 18.74 18.74 0 0 0 7 18.749v62.5c0 4.974 1.979 9.743 5.5 13.26A18.8 18.8 0 0 0 25.78 100h64.165a4.69 4.69 0 0 0 4.695-4.688v-3.124a4.69 4.69 0 0 0-4.695-4.688H25.78c-3.756 0-6.26-2.5-6.26-6.25S22.65 75 25.78 75"/><path fill="#bfc0ce" d="M73.13 36.672a2.143 2.143 0 1 0-4.18.922c.419 1.91.438 3.338.419 5.495a2.14 2.14 0 0 0 2.123 2.158h.017a2.14 2.14 0 0 0 2.14-2.122c.017-1.979.037-3.935-.519-6.453m-22.299 3.784c-1.182 0-2.141.96-2.141 2.14a65.2 65.2 0 0 1-2.472 18.872c-.243.868.193 2.72 2.063 2.72.96 0 1.801-.64 2.06-1.563a69.1 69.1 0 0 0 2.63-20.028 2.14 2.14 0 0 0-2.141-2.14m-9.951-9.058a2.14 2.14 0 0 0-3.012.31 15.47 15.47 0 0 0-3.457 9.99 52 52 0 0 1-.812 9.998 2.14 2.14 0 0 0 1.728 2.486c1.793.31 2.414-1.322 2.488-1.727.641-3.571.936-7.197.878-10.823-.056-2.63.83-5.193 2.498-7.226a2.14 2.14 0 0 0-.311-3.008"/><path fill="#bfc0ce" d="M69.553 28.58a23.73 23.73 0 0 0-19.018-10.068c-6.226-.073-11.983 2.222-16.265 6.507a21.28 21.28 0 0 0-6.273 15.495l-.013 1.915a2.14 2.14 0 0 0 2.078 2.202h.064a2.14 2.14 0 0 0 2.14-2.077l.015-2.11a17.02 17.02 0 0 1 5.02-12.4c3.457-3.458 8.147-5.32 13.171-5.25 6.211.1 12 3.164 15.578 8.242a2.14 2.14 0 1 0 3.503-2.457m-18.91-2.741a16 16 0 0 0-4.084.445 2.142 2.142 0 0 0 .988 4.168c.993-.23 2.012-.341 3.031-.329 6.729.1 12.286 5.486 12.388 12.005a79 79 0 0 1-.497 10.136 2.143 2.143 0 0 0 1.884 2.371c1.49.173 2.274-1.06 2.37-1.883.406-3.548.582-7.119.528-10.69-.14-8.813-7.588-16.09-16.609-16.223m.109 7.325c-5.465-.007-9.276 4.198-9.202 9.017a58.5 58.5 0 0 1-1.193 12.715 2.141 2.141 0 1 0 4.194.868 63 63 0 0 0 1.28-13.649c-.036-2.314 1.778-4.682 4.858-4.668 2.793.042 5.098 2.259 5.14 4.947a71.6 71.6 0 0 1-.947 12.806 2.14 2.14 0 0 0 1.763 2.46c1.784.297 2.392-1.347 2.46-1.764a76 76 0 0 0 1.008-13.566c-.079-4.982-4.277-9.092-9.359-9.166z"/></g></svg>