<svg xmlns="http://www.w3.org/2000/svg" width="100" height="100" viewBox="0 0 100 100"><title>RabbitFast</title><defs><linearGradient id="a" x1="100%" x2=".005%" y1=".003%" y2=".003%"><stop offset="0%" stop-color="#762b8a"/><stop offset="100%" stop-color="#a61f8c"/></linearGradient></defs><g fill="none"><path fill="#3f454f" d="M26.816 72.932a2.67 2.67 0 0 0-1.246 2.255v6.271a2.658 2.658 0 0 0 4.067 2.256l11.081-6.625-7.949-7.95zm69.245-32.469-9.373-5.752c-.01-2.317-.382-5.111-1.177-8.086-1.879-7.018-5.3-12.2-7.643-11.574s-2.714 6.826-.83 13.844c.107.405.239.78.356 1.173a38 38 0 0 0-2.71-3.045c-5.135-5.136-10.69-7.914-12.395-6.207-1.707 1.705 1.064 7.265 6.202 12.404a33 33 0 0 0 6.217 4.948 10 10 0 0 0-1.144 3.21q-.118.768-.124 1.546c-8.57-6.139-25.674-17.29-37.236-17.29A20.16 20.16 0 0 0 17.676 37.85a10.27 10.27 0 0 0 2.178 11.309l27.55 27.55a7.14 7.14 0 0 0 5.05 2.091H76.08a2.66 2.66 0 0 0 2.657-2.658v-2.658a5.32 5.32 0 0 0-5.316-5.317H57.47v-9.234a13.33 13.33 0 0 0-9.636-12.779l-7.045-2.012a2.656 2.656 0 0 1-1.828-3.287 2.66 2.66 0 0 1 3.287-1.827l7.043 2.012a18.68 18.68 0 0 1 13.496 17.893v3.918l10.633-5.317h17.169a9.42 9.42 0 0 0 8.96-6.541 9.41 9.41 0 0 0-3.488-10.531zM86.71 46.9a2.656 2.656 0 0 1-1.252-5.002 2.66 2.66 0 0 1 2.27-.113 2.657 2.657 0 0 1-1.017 5.115"/><path fill="#fff" d="M86.709 41.584a2.659 2.659 0 1 0-.11 5.317 2.659 2.659 0 0 0 .11-5.317"/><path fill="url(#a)" d="M.034 22.888a7.98 7.98 0 0 1 2.83-5.384 7.974 7.974 0 0 1 11.221 1.078q.437.525.776 1.117a20 20 0 0 0-1.525 2.882 10.27 10.27 0 0 0-.324 7.228A7.977 7.977 0 0 1 .034 22.886" transform="translate(0 15)"/></g></svg>