<svg xmlns="http://www.w3.org/2000/svg" width="100" height="100" viewBox="0 0 100 100"><title>Radar</title><defs><linearGradient id="a" x1="84.719%" x2=".603%" y1=".603%" y2="84.719%"><stop offset="0%" stop-color="#762b8a"/><stop offset="100%" stop-color="#a61f8c"/></linearGradient></defs><g fill="none"><path fill="#3f454f" d="M20.968 50c0-2.137-1.108-3.94-2.71-5.114C20.731 29.536 33.965 17.742 50 17.742c7.145 0 13.639 2.476 18.977 6.439l-9.198 9.196A18.9 18.9 0 0 0 50 30.645c-10.69 0-19.355 8.666-19.355 19.355S39.311 69.355 50 69.355 69.355 60.689 69.355 50h12.903c0 16.036-11.795 29.27-27.144 31.74-1.173-1.6-2.977-2.708-5.114-2.708s-3.941 1.108-5.114 2.709a32.18 32.18 0 0 1-26.628-26.627c1.602-1.174 2.71-2.977 2.71-5.114m67.742 0c0 19.408-14.297 35.431-32.925 38.231a6.37 6.37 0 0 1-11.57 0c-16.756-2.538-29.908-15.69-32.446-32.446a6.37 6.37 0 0 1 0-11.57C14.568 25.587 30.594 11.29 50 11.29a38.45 38.45 0 0 1 23.706 8.163l8.037-8.04A49.74 49.74 0 0 0 50 0C22.386 0 0 22.386 0 50s22.386 50 50 50 50-22.386 50-50zm-39.655 3.225-2.28-2.28a3.226 3.226 0 0 1 0-4.563l8.208-8.207A12.4 12.4 0 0 0 50 37.097c-7.126 0-12.903 5.777-12.903 12.903S42.874 62.903 50 62.903 62.903 57.126 62.903 50h-6.06l-3.227 3.225a3.226 3.226 0 0 1-4.561 0"/><path fill="#bfc0ce" d="M44.215 88.231c-16.756-2.538-29.908-15.69-32.446-32.446a6.3 6.3 0 0 0 2.747.667c1.425 0 2.675-.555 3.742-1.338a32.18 32.18 0 0 0 26.628 26.627c-.783 1.068-1.338 2.318-1.338 3.743a6.3 6.3 0 0 0 .667 2.747m10.9-6.49c.782 1.068 1.337 2.318 1.337 3.743a6.3 6.3 0 0 1-.667 2.747C74.413 85.431 88.71 69.408 88.71 50h-6.452c0 16.036-11.795 29.27-27.144 31.74M94.216 8.064l-2.28-2.28a3.226 3.226 0 0 0-4.562 0L73.706 19.455A38.45 38.45 0 0 0 50 11.29c-19.406 0-35.432 14.297-38.231 32.925a6.3 6.3 0 0 1 2.747-.667c1.425 0 2.675.554 3.742 1.338C20.731 29.536 33.965 17.742 50 17.742c7.145 0 13.639 2.475 18.977 6.439l-9.198 9.196A18.9 18.9 0 0 0 50 30.645c-10.69 0-19.355 8.666-19.355 19.355S39.311 69.355 50 69.355 69.355 60.689 69.355 50h-6.452A12.903 12.903 0 1 1 50 37.097c1.717.012 3.413.379 4.984 1.078l-8.209 8.207a3.226 3.226 0 0 0 0 4.562l2.28 2.28a3.226 3.226 0 0 0 4.563 0l40.598-40.598a3.226 3.226 0 0 0 0-4.563"/><path fill="url(#a)" stroke="#fff" stroke-linejoin="round" stroke-width="3" d="m57.577 53.123 37.22-37.22a5.28 5.28 0 0 0 0-7.465L92.41 6.05a5.28 5.28 0 0 0-7.466 0l-37.22 37.22a5.28 5.28 0 0 0 0 7.466l2.386 2.387a5.28 5.28 0 0 0 7.466 0Z"/></g></svg>