<svg xmlns="http://www.w3.org/2000/svg" width="100" height="100" viewBox="0 0 100 100"><title>Robot</title><defs><linearGradient id="a" x1="100%" x2="0%" y1="0%" y2="0%"><stop offset="0%" stop-color="#762b8a"/><stop offset="100%" stop-color="#a61f8c"/></linearGradient></defs><g fill="none" fill-rule="evenodd"><path fill="#bfc0ce" fill-rule="nonzero" d="M41.375 46.875h-6.25v6.25h6.25zm0 40.625a3.126 3.126 0 0 0-3.125 3.125V100h6.25v-9.375a3.124 3.124 0 0 0-3.125-3.125m6.25-34.375h6.25v-6.25h-6.25zm12.5 0h6.25v-6.25h-6.25zm0 34.375a3.125 3.125 0 1 0 0 6.25 3.125 3.125 0 0 0 0-6.25M50.75 0a3.125 3.125 0 0 0-3.125 3.125V12.5h6.25V3.125c0-1.726-1.4-3.125-3.125-3.125"/><path fill="#3f454f" fill-rule="nonzero" d="M29.656 62.5h42.188a7.036 7.036 0 0 0 7.031-7.031v-34.18a8.786 8.786 0 0 0-8.79-8.789h-38.67a8.786 8.786 0 0 0-8.79 8.79v34.179a7.036 7.036 0 0 0 7.031 7.031m36.719-9.375h-6.25v-6.25h6.25zM63.25 25a6.25 6.25 0 1 1 0 12.5 6.25 6.25 0 0 1 0-12.5M47.625 46.875h6.25v6.25h-6.25zm-6.25 6.25h-6.25v-6.25h6.25zM38.25 25a6.25 6.25 0 1 1 0 12.5 6.25 6.25 0 0 1 0-12.5m37.5 43.75h-50C15.395 68.75 7 77.145 7 87.5v6.25a6.25 6.25 0 0 0 6.25 6.25H32V87.5a6.25 6.25 0 0 1 6.25-6.25h25a6.25 6.25 0 0 1 6.25 6.25V100h18.75a6.25 6.25 0 0 0 6.25-6.25V87.5c0-10.355-8.395-18.75-18.75-18.75"/><path fill="url(#a)" d="M83.985 26.19h-5.86v25h5.86a3.51 3.51 0 0 0 3.515-3.515V29.706a3.51 3.51 0 0 0-3.515-3.516M1.19 29.706v17.969a3.51 3.51 0 0 0 3.516 3.515h5.86v-25h-5.86a3.51 3.51 0 0 0-3.516 3.516" transform="translate(7)"/></g></svg>