<svg xmlns="http://www.w3.org/2000/svg" width="100" height="100" viewBox="0 0 100 100"><title>Rocket</title><defs><linearGradient id="a" x1="100%" x2="0%" y1="0%" y2="0%"><stop offset="0%" stop-color="#762b8a"/><stop offset="100%" stop-color="#a61f8c"/></linearGradient></defs><g fill="none" transform="translate(0 1.96)"><path fill="url(#a)" d="M6.706 67.977c-4.86 4.86-7.26 17.016-6.598 29.95 12.988.67 25.11-1.757 29.95-6.597 7.572-7.571 8.058-17.666 1.186-24.539-6.871-6.87-16.966-6.385-24.538 1.186m17.848 15.235c-2.017 2.018-7.068 3.03-12.48 2.75-.277-5.39.725-10.454 2.75-12.48 3.154-3.154 7.362-3.357 10.225-.494s2.66 7.07-.495 10.224M9.763 30.841.476 49.414A5.3 5.3 0 0 0 0 51.425a4.51 4.51 0 0 0 4.511 4.511h17.566c4.407-8.911 11.468-23.189 14.64-29.57.099-.172.189-.333.288-.503H17.823c-3.073.002-6.679 2.233-8.06 4.978m61.912 30.465c-6.384 3.197-20.688 10.278-29.572 14.676v17.585a4.535 4.535 0 0 0 4.503 4.472 5.3 5.3 0 0 0 1.997-.477L67.16 88.28c2.75-1.374 4.982-4.98 4.982-8.056v-19.08l.035-.025v-.098z"/><path fill="#3f454f" stroke="#fff" stroke-width="3" d="M61.95 28.87a7.22 7.22 0 0 0 7.217 7.218zm0 0a7.22 7.22 0 0 1 7.218-7.217m-7.217 7.217 7.217-7.217m0 0a7.22 7.22 0 0 1 7.218 7.217zM96.713 5.096l-.002-.014-.004-.012a4.96 4.96 0 0 0-3.706-3.718l-.016-.004-.014-.002C86.694 0 81.676 0 77.003 0h-.037c-8.669 0-16.359 1.979-23.25 6.123-6.876 4.137-12.857 10.37-18.213 18.733l-.024.039-.024.04-.307.54-.024.043-.023.044a21466 21466 0 0 0-14.64 29.574l-1.287 2.605h4.885c8.968 0 16.24 7.27 16.24 16.239v4.907l2.603-1.289c8.884-4.396 23.193-11.48 29.58-14.678l.045-.023.043-.024.527-.302.04-.022.037-.024C81.54 57.149 87.773 51.16 91.91 44.293c4.145-6.883 6.126-14.552 6.126-23.186v-.005c.015-4.72.03-9.684-1.323-16.006ZM76.386 28.87a7.22 7.22 0 0 1-7.218 7.218z"/><circle cx="70.371" cy="28.87" r="10.225" fill="#bfc0ce"/></g></svg>