<svg xmlns="http://www.w3.org/2000/svg" xmlns:xlink="http://www.w3.org/1999/xlink" width="100" height="100" viewBox="0 0 100 100"><title>ShieldLock</title><defs><linearGradient id="c" x1="94.983%" x2="-25.536%" y1="50%" y2="50%"><stop offset="0%" stop-color="#762b8a"/><stop offset="100%" stop-color="#c6168d"/></linearGradient><path id="a" d="M0 0h100v100H0z"/></defs><g fill="none" fill-rule="evenodd"><mask id="b" fill="#fff"><use xlink:href="#a"/></mask><path fill="#4d5067" fill-rule="nonzero" d="M91.135 16.365 53.676.772a9.74 9.74 0 0 0-7.193 0L9.023 16.365c-1.681.688-3.215 1.915-4.2 3.438-.983 1.524-1.607 3.364-1.607 5.194 0 38.76 22.32 65.599 43.277 74.241a9.74 9.74 0 0 0 7.194 0c16.746-6.96 43.277-31.037 43.277-74.24 0-1.83-.54-3.671-1.608-5.195-1.068-1.534-2.518-2.75-4.2-3.438z" mask="url(#b)"/><path fill="url(#c)" fill-rule="nonzero" d="M46.567 41.13q0-.075 0 0l.074-.074a7 7 0 0 1 .455-.836 3.6 3.6 0 0 1 2.91-1.45c.38 0 .761.075 1.068.149.074 0 .232.074.455.148l.074.074c.455.233.761.54 1.068.836 0 .074.074.148.148.232.074.075.074.149.148.233.148.233.233.381.307.54v.148s0 .074.074.148c.074.233.074.455.148.613v3.978h-7.341v-3.597c0-.232 0-.38.074-.613.148-.148.232-.307.306-.54zm22.247 10.092c0-2.983-2.444-5.353-5.427-5.353v-3.597c0-7.267-5.966-13.149-13.308-13.149s-13.308 5.882-13.308 13.15v3.596c-2.983 0-5.426 2.37-5.426 5.353v14.376c0 2.983 2.443 5.353 5.426 5.353h26.68c2.983 0 5.427-2.37 5.427-5.353V51.222h-.074z"/><path stroke="#fff" stroke-width="3" d="m46.567 41.13.074-.074a7 7 0 0 1 .455-.836 3.6 3.6 0 0 1 2.91-1.45c.38 0 .761.075 1.068.149.074 0 .232.074.455.148l.074.074c.455.233.761.54 1.068.836 0 .074.074.148.148.232.074.075.074.149.148.233.148.233.233.381.307.54v.148s0 .074.074.148c.074.233.074.455.148.613v3.978h-7.341v-3.597c0-.232 0-.38.074-.613.148-.148.232-.307.306-.54zm22.247 10.092c0-2.983-2.444-5.353-5.427-5.353v-3.597c0-7.267-5.966-13.149-13.308-13.149s-13.308 5.882-13.308 13.15v3.596c-2.983 0-5.426 2.37-5.426 5.353v14.376c0 2.983 2.443 5.353 5.426 5.353h26.68c2.983 0 5.427-2.37 5.427-5.353V51.222h-.074z"/></g></svg>