<svg xmlns="http://www.w3.org/2000/svg" width="263" height="42" viewBox="0 0 263 42">
    <defs>
        <linearGradient id="a" x1="50%" x2="50%" y1="0%" y2="100%">
            <stop offset="20%" stop-color="#c6168d"/>
            <stop offset="80%" stop-color="#762b8a"/>
        </linearGradient>
    </defs>
    <g fill="none" fill-rule="evenodd">
        <path stroke="#6e228b" stroke-linecap="round" stroke-linejoin="round" stroke-width=".483" d="M177 1v39.695"/>
        <g fill="#3f454f" fill-rule="nonzero">
            <path d="M196.321 27.204a6.2 6.2 0 0 1-1.708-.221 4.8 4.8 0 0 1-1.36-.612 4.2 4.2 0 0 1-.97-.875 3 3 0 0 1-.535-1.012l1.938-.595q.22.63.867 1.105.645.476 1.598.493 1.105 0 1.751-.459t.646-1.207a1.36 1.36 0 0 0-.544-1.114q-.544-.432-1.462-.671l-1.462-.374a5.4 5.4 0 0 1-1.505-.646 3.2 3.2 0 0 1-1.053-1.071q-.383-.645-.383-1.53 0-1.666 1.088-2.592t3.111-.927q1.14 0 1.998.348.858.349 1.419.953.561.603.833 1.368l-1.904.612a2.37 2.37 0 0 0-.884-1.122q-.629-.442-1.564-.442-.969 0-1.522.459-.552.459-.552 1.275 0 .663.433 1.029.434.364 1.182.552l1.462.357q1.598.39 2.482 1.343.884.952.884 2.108 0 1.02-.493 1.802t-1.453 1.224-2.338.442M202.543 27v-8.5h1.887V27zm.952-10.115q-.46 0-.79-.332a1.08 1.08 0 0 1-.332-.79q0-.46.332-.782.33-.323.79-.323t.79.323q.332.323.332.782 0 .46-.331.79a1.08 1.08 0 0 1-.791.332M210.329 30.621q-.9 0-1.624-.153a7 7 0 0 1-1.215-.357 4.3 4.3 0 0 1-.765-.391l.731-1.53q.238.12.638.297.399.18.943.315.544.136 1.224.136.731 0 1.309-.297.578-.298.901-.91t.323-1.564V18.5h1.904v7.616q0 1.444-.544 2.457a3.62 3.62 0 0 1-1.53 1.53q-.986.518-2.295.518m-.289-3.791q-1.155 0-2.014-.527a3.63 3.63 0 0 1-1.344-1.47q-.483-.945-.484-2.185 0-1.326.484-2.295.485-.969 1.344-1.513.858-.544 2.014-.544 1.037 0 1.81.544t1.199 1.521.425 2.304q0 1.258-.425 2.193t-1.198 1.454-1.811.518m.527-1.615q.646 0 1.13-.34a2.27 2.27 0 0 0 .757-.927q.272-.585.272-1.351 0-.781-.272-1.369a2.2 2.2 0 0 0-.765-.918 2 2 0 0 0-1.139-.331q-.68 0-1.199.331a2.3 2.3 0 0 0-.815.919q-.298.586-.298 1.368 0 .765.298 1.351.297.587.824.927t1.207.34M216.806 27v-8.5h1.785l.119 1.564V27zm5.763 0v-4.352h1.904V27zm0-4.352q0-1.02-.23-1.573t-.645-.773a2.06 2.06 0 0 0-.978-.221q-.952-.017-1.479.629-.527.645-.527 1.853h-.714q0-1.343.391-2.303.39-.96 1.122-1.463.73-.501 1.734-.501 1.02 0 1.743.408.722.408 1.105 1.267.382.858.382 2.235v.442zM226.411 27V15.1h1.904V27zm5.763 0v-4.352h1.904V27zm0-4.352q0-1.02-.238-1.573t-.655-.773a2 2 0 0 0-.96-.221q-.97-.017-1.487.629-.519.645-.519 1.853h-.731q0-1.343.4-2.303t1.13-1.463q.73-.501 1.734-.501t1.734.408 1.114 1.267q.382.858.382 2.235v.442zM239.909 27.204q-1.274 0-2.27-.57a4.07 4.07 0 0 1-1.555-1.572q-.561-1.004-.561-2.312 0-1.309.553-2.312a4 4 0 0 1 1.538-1.572q.986-.57 2.261-.57t2.261.57 1.538 1.572.553 2.312-.544 2.312a3.97 3.97 0 0 1-1.53 1.572q-.986.57-2.244.57m0-1.751a2.25 2.25 0 0 0 1.241-.348q.544-.349.85-.953t.306-1.402-.315-1.402a2.45 2.45 0 0 0-.858-.953 2.3 2.3 0 0 0-1.258-.348q-.714 0-1.258.34a2.3 2.3 0 0 0-.85.952q-.306.612-.306 1.411 0 .8.314 1.402.316.604.867.953.553.348 1.267.348M248.97 27.204a4.6 4.6 0 0 1-1.564-.255 3.6 3.6 0 0 1-1.224-.723 3.2 3.2 0 0 1-.782-1.096l1.649-.731q.255.476.756.799.502.323 1.114.323.663 0 1.062-.23.4-.229.4-.637a.69.69 0 0 0-.306-.604q-.306-.212-.867-.348l-.799-.221q-1.208-.306-1.887-.977-.68-.672-.68-1.539 0-1.275.824-1.972.825-.697 2.372-.697.782 0 1.436.23.655.228 1.131.646.475.416.663.977l-1.581.714q-.17-.425-.646-.654a2.4 2.4 0 0 0-1.054-.23q-.578 0-.901.247-.323.246-.323.688 0 .255.289.468.289.211.833.348l1.003.238q.833.204 1.36.637.527.435.782.97t.255 1.079q0 .765-.434 1.343-.432.578-1.181.892-.748.315-1.7.315M257.181 27.204q-1.343 0-2.048-.672-.706-.67-.706-1.929v-8.755h1.887v8.398q0 .595.28.901.281.306.825.306.17 0 .374-.068t.459-.255l.697 1.445q-.443.306-.884.468a2.6 2.6 0 0 1-.884.161m-4.165-7.072V18.5h5.593v1.632z"/>
        </g>
        <path fill="#762b8a" fill-rule="nonzero" d="M16.962 40.576 0 30.684v-19.79L16.962 1l16.961 9.895v19.789zm14.232-11.485V12.485L16.962 4.183l-14.234 8.31v16.605l14.234 8.309z"/>
        <path fill="url(#a)" d="M19.383 29.97v-2.786l8.876-5.199v-2.767l-8.876 5.148v-2.769l8.886-5.146-.002-2.403L16.68 7.31 5.09 14.05v13.48l11.59 6.738 11.59-6.744v-2.766z"/>
        <path fill="#3f454f" fill-rule="nonzero" d="M54.965 28.077H41.838V15.339h12.697v2.803h-9.782v1.918h6.801v2.798h-6.8v2.416h10.21zM58.96 15.34v12.737h2.933v-9.434l7.452 9.434h3.883V15.339h-2.939v9.44l-7.45-9.44zm18.263 0v2.798h5.645v9.939h2.974v-9.939h5.649V15.34zm71.34 0v2.798h5.646v9.939h2.972v-9.939h5.65V15.34zm-43.8 0q2.027 0 3.224 1.13t1.204 3.028q0 3.026-2.718 3.872l3.28 4.707h-3.455l-3.083-4.43H97.87v4.43h-2.955V15.339zm-6.89 2.805v2.698h6.364c1.767 0 1.923-.64 1.923-1.362 0-.815-.516-1.343-1.828-1.343zm22.439 7.789c3.832 0 4.19-1.314 4.19-2.449v-7.567h2.944v8.206c0 2.936-3.14 4.532-7.134 4.532s-7.134-1.596-7.134-4.532v-8.206h2.943v7.567c0 1.135.359 2.45 4.191 2.45m23.623-6.538 1.875-2c-2.538-2.043-5.755-1.983-6.64-2.041-.884-.059-6.84-.177-7.106 3.907-.175 2.777 2.441 3.685 6.655 3.791 4.213.106 4.391.846 4.386 1.312 0 .502-.54 1.624-4.31 1.562-2.441-.04-4.544-.906-5.674-1.876l-1.68 2.224c1.978 1.586 4.503 2.38 7.64 2.38 3.776 0 7.02-.991 7.19-4.114.201-3.63-3.466-4.055-6.813-4.34-3.233-.267-4.252-.352-4.241-1.163 0-.892 2.452-1.008 4.14-.911 1.97.112 3.453.613 4.578 1.27"/>
    </g>
</svg>