<svg xmlns="http://www.w3.org/2000/svg" width="263" height="42" viewBox="0 0 263 42"><title>Branding/Signhost Horizontal</title><defs><linearGradient id="a" x1="50%" x2="50%" y1="0%" y2="100%"><stop offset="20%" stop-color="#c6168d"/><stop offset="80%" stop-color="#762b8a"/></linearGradient></defs><g fill="none"><path stroke="#6e228b" stroke-linecap="round" stroke-linejoin="round" stroke-width=".483" d="M177 1v39.695"/><text fill="#3f454f" font-family="Figtree-SemiBold, Figtree" font-size="17" font-weight="500" letter-spacing=".4">
            <tspan x="191" y="27">Signhost</tspan>
        </text><g fill-rule="nonzero"><path fill="#762b8a" d="M16.962 40.576 0 30.684v-19.79L16.962 1l16.961 9.895v19.789zm14.232-11.485V12.485L16.962 4.183l-14.234 8.31v16.605l14.234 8.309z"/><path fill="url(#a)" d="M19.383 28.97v-2.786l8.876-5.199v-2.767l-8.876 5.148v-2.769l8.886-5.146-.002-2.403L16.68 6.31l-11.59 6.74v13.48l11.59 6.738 11.59-6.744v-2.766z" transform="translate(0 1)"/><g fill="#3f454f"><path d="M54.965 28.077H41.838V15.339h12.697v2.803h-9.782v1.918h6.801v2.798h-6.8v2.416h10.21zM58.96 15.34v12.737h2.933v-9.434l7.452 9.434h3.883V15.339h-2.939v9.44l-7.45-9.44zM77.223 15.34v2.798h5.645v9.939h2.974v-9.939h5.649V15.34zM148.563 15.34v2.798h5.646v9.939h2.972v-9.939h5.65V15.34zM104.763 15.34q2.027 0 3.224 1.13t1.204 3.028q0 3.026-2.718 3.872l3.28 4.707h-3.455l-3.083-4.43H97.87v4.43h-2.955V15.339zm-6.89 2.805v2.698h6.364c1.767 0 1.923-.64 1.923-1.362 0-.815-.516-1.343-1.828-1.343zM120.312 25.934c3.832 0 4.19-1.314 4.19-2.449v-7.567h2.944v8.206c0 2.936-3.14 4.532-7.134 4.532s-7.134-1.596-7.134-4.532v-8.206h2.943v7.567c0 1.135.359 2.45 4.191 2.45M143.935 19.397l1.875-2c-2.538-2.043-5.755-1.983-6.64-2.041-.884-.059-6.84-.177-7.106 3.907-.175 2.777 2.441 3.685 6.655 3.791 4.213.106 4.391.846 4.386 1.312 0 .502-.54 1.624-4.31 1.562-2.441-.04-4.544-.906-5.674-1.876l-1.68 2.224c1.978 1.586 4.503 2.38 7.64 2.38 3.776 0 7.02-.991 7.19-4.114.201-3.63-3.466-4.055-6.813-4.34-3.233-.267-4.252-.352-4.241-1.163 0-.892 2.452-1.008 4.14-.911 1.97.112 3.453.613 4.578 1.27"/></g></g></g></svg>