<svg xmlns="http://www.w3.org/2000/svg"
    xmlns:xlink="http://www.w3.org/1999/xlink" width="263" height="42" viewBox="0 0 263 42">
    <defs>
        <path id="a" d="M.01.064h33.927V39.81H.01z"/>
        <path id="c" d="M.16.07h85.415v12.58H.161z"/>
        <path id="e" d="M.16.07h85.415v12.58H.161z"/>
    </defs>
    <g fill="none" fill-rule="evenodd">
        <path stroke="#fff" stroke-linecap="round" stroke-linejoin="round" stroke-width=".483" d="M182 1v39.695"/>
        <g fill="#fff" fill-rule="nonzero">
            <path d="M196.321 27.204a6.2 6.2 0 0 1-1.708-.221 4.8 4.8 0 0 1-1.36-.612 4.2 4.2 0 0 1-.97-.875 3 3 0 0 1-.535-1.012l1.938-.595q.22.63.867 1.105.645.476 1.598.493 1.105 0 1.751-.459t.646-1.207a1.36 1.36 0 0 0-.544-1.114q-.544-.432-1.462-.671l-1.462-.374a5.4 5.4 0 0 1-1.505-.646 3.2 3.2 0 0 1-1.053-1.071q-.383-.645-.383-1.53 0-1.666 1.088-2.592t3.111-.927q1.14 0 1.998.348.858.349 1.419.953.561.603.833 1.368l-1.904.612a2.37 2.37 0 0 0-.884-1.122q-.629-.442-1.564-.442-.969 0-1.522.459-.552.459-.552 1.275 0 .663.433 1.029.434.364 1.182.552l1.462.357q1.598.39 2.482 1.343.884.952.884 2.108 0 1.02-.493 1.802t-1.453 1.224-2.338.442M202.543 27v-8.5h1.887V27zm.952-10.115q-.46 0-.79-.332a1.08 1.08 0 0 1-.332-.79q0-.46.332-.782.33-.323.79-.323t.79.323q.332.323.332.782 0 .46-.331.79a1.08 1.08 0 0 1-.791.332M210.329 30.621q-.9 0-1.624-.153a7 7 0 0 1-1.215-.357 4.3 4.3 0 0 1-.765-.391l.731-1.53q.238.12.638.297.399.18.943.315.544.136 1.224.136.731 0 1.309-.297.578-.298.901-.91t.323-1.564V18.5h1.904v7.616q0 1.444-.544 2.457a3.62 3.62 0 0 1-1.53 1.53q-.986.518-2.295.518m-.289-3.791q-1.155 0-2.014-.527a3.63 3.63 0 0 1-1.344-1.47q-.483-.945-.484-2.185 0-1.326.484-2.295.485-.969 1.344-1.513.858-.544 2.014-.544 1.037 0 1.81.544t1.199 1.521.425 2.304q0 1.258-.425 2.193t-1.198 1.454-1.811.518m.527-1.615q.646 0 1.13-.34a2.27 2.27 0 0 0 .757-.927q.272-.585.272-1.351 0-.781-.272-1.369a2.2 2.2 0 0 0-.765-.918 2 2 0 0 0-1.139-.331q-.68 0-1.199.331a2.3 2.3 0 0 0-.815.919q-.298.586-.298 1.368 0 .765.298 1.351.297.587.824.927t1.207.34M216.806 27v-8.5h1.785l.119 1.564V27zm5.763 0v-4.352h1.904V27zm0-4.352q0-1.02-.23-1.573t-.645-.773a2.06 2.06 0 0 0-.978-.221q-.952-.017-1.479.629-.527.645-.527 1.853h-.714q0-1.343.391-2.303.39-.96 1.122-1.463.73-.501 1.734-.501 1.02 0 1.743.408.722.408 1.105 1.267.382.858.382 2.235v.442zM226.411 27V15.1h1.904V27zm5.763 0v-4.352h1.904V27zm0-4.352q0-1.02-.238-1.573t-.655-.773a2 2 0 0 0-.96-.221q-.97-.017-1.487.629-.519.645-.519 1.853h-.731q0-1.343.4-2.303t1.13-1.463q.73-.501 1.734-.501t1.734.408 1.114 1.267q.382.858.382 2.235v.442zM239.909 27.204q-1.274 0-2.27-.57a4.07 4.07 0 0 1-1.555-1.572q-.561-1.004-.561-2.312 0-1.309.553-2.312a4 4 0 0 1 1.538-1.572q.986-.57 2.261-.57t2.261.57 1.538 1.572.553 2.312-.544 2.312a3.97 3.97 0 0 1-1.53 1.572q-.986.57-2.244.57m0-1.751a2.25 2.25 0 0 0 1.241-.348q.544-.349.85-.953t.306-1.402-.315-1.402a2.45 2.45 0 0 0-.858-.953 2.3 2.3 0 0 0-1.258-.348q-.714 0-1.258.34a2.3 2.3 0 0 0-.85.952q-.306.612-.306 1.411 0 .8.314 1.402.316.604.867.953.553.348 1.267.348M248.97 27.204a4.6 4.6 0 0 1-1.564-.255 3.6 3.6 0 0 1-1.224-.723 3.2 3.2 0 0 1-.782-1.096l1.649-.731q.255.476.756.799.502.323 1.114.323.663 0 1.062-.23.4-.229.4-.637a.69.69 0 0 0-.306-.604q-.306-.212-.867-.348l-.799-.221q-1.208-.306-1.887-.977-.68-.672-.68-1.539 0-1.275.824-1.972.825-.697 2.372-.697.782 0 1.436.23.655.228 1.131.646.475.416.663.977l-1.581.714q-.17-.425-.646-.654a2.4 2.4 0 0 0-1.054-.23q-.578 0-.901.247-.323.246-.323.688 0 .255.289.468.289.211.833.348l1.003.238q.833.204 1.36.637.527.435.782.97t.255 1.079q0 .765-.434 1.343-.432.578-1.181.892-.748.315-1.7.315M257.181 27.204q-1.343 0-2.048-.672-.706-.67-.706-1.929v-8.755h1.887v8.398q0 .595.28.901.281.306.825.306.17 0 .374-.068t.459-.255l.697 1.445q-.443.306-.884.468a2.6 2.6 0 0 1-.884.161m-4.165-7.072V18.5h5.593v1.632z"/>
        </g>
        <g transform="translate(0 1.33)">
            <mask id="b" fill="#fff">
                <use xlink:href="#a"/>
            </mask>
            <path fill="#fffffe" fill-rule="nonzero" d="M31.208 28.282v-16.68l-14.24-8.34-14.239 8.34v16.68l14.24 8.34zm-14.24 11.537L0 29.88V10.003L16.969.064l16.968 9.939V29.88z" mask="url(#b)"/>
        </g>
        <path fill="#fffffe" fill-rule="nonzero" d="M19.655 30.458v-2.787l8.815-5.201v-2.768l-8.815 5.15v-2.77l8.825-5.148-.001-2.403-11.51-6.742-11.51 6.742v13.483l11.51 6.742L28.48 28.01v-2.768zm35.839-2.044H42.21V15.833h12.85V18.6h-9.9v1.895h6.883v2.763H45.16v2.387h10.334zm3.962-12.581v12.581h2.95v-9.317l7.488 9.317h3.902V15.833h-2.952v9.326l-7.487-9.326z"/>
        <g transform="translate(77.13 15.763)">
            <mask id="d" fill="#fff">
                <use xlink:href="#c"/>
            </mask>
            <path fill="#fffffe" d="M.16.07v2.764h5.607v9.817H8.72V2.834h5.61V.07z" mask="url(#d)"/>
        </g>
        <g transform="translate(77.13 15.763)">
            <mask id="f" fill="#fff">
                <use xlink:href="#e"/>
            </mask>
            <path fill="#fffffe" d="M71.407.07v2.764h5.606v9.817h2.952V2.834h5.61V.07z" mask="url(#f)"/>
        </g>
        <path fill="#fffffe" fill-rule="nonzero" d="M97.912 18.6v2.672h6.347c1.76 0 1.917-.633 1.917-1.345 0-.805-.51-1.326-1.821-1.326zm6.867-2.772q2.018 0 3.212 1.117t1.194 2.992q0 2.99-2.708 3.822l3.269 4.65h-3.439l-3.071-4.377H97.91v4.378h-2.953V15.828zm15.938 10.165c3.84 0 4.199-1.333 4.199-2.484v-7.676h2.949v8.324c0 2.978-3.146 4.599-7.148 4.599s-7.148-1.62-7.148-4.599v-8.324h2.95v7.676c0 1.151.358 2.484 4.199 2.484zm23.025-6.494 1.841-1.972c-2.493-2.016-5.652-1.956-6.523-2.013-.872-.057-6.724-.182-6.986 3.854-.178 2.738 2.398 3.633 6.54 3.738 4.143.104 4.317.835 4.312 1.293-.005.495-.53 1.602-4.236 1.54-2.405-.04-4.466-.894-5.577-1.85l-1.65 2.193c1.943 1.565 4.424 2.348 7.508 2.348 3.71 0 6.9-.977 7.068-4.057.196-3.58-3.408-4.005-6.698-4.28-3.176-.264-4.177-.35-4.168-1.146.01-.88 2.41-.995 4.07-.9 1.936.11 3.393.605 4.499 1.252"/>
    </g>
</svg>