<svg xmlns="http://www.w3.org/2000/svg" xmlns:xlink="http://www.w3.org/1999/xlink" width="263" height="42" viewBox="0 0 263 42"><title>Branding/Signhost Horizontal Reverse</title><defs><path id="a" d="M.01.064h33.927V39.81H.01z"/><path id="c" d="M.16.07h85.415V12.65H.161z"/></defs><g fill="none"><path stroke="#fff" stroke-linecap="round" stroke-linejoin="round" stroke-width=".483" d="M182 1v39.695"/><text fill="#fff" font-family="Figtree-SemiBold, Figtree" font-size="17" font-weight="500" letter-spacing=".4">
            <tspan x="191" y="27">Signhost</tspan>
        </text><g fill-rule="evenodd"><g transform="translate(0 1.33)"><mask id="b" fill="#fff"><use xlink:href="#a"/></mask><path fill="#fffffe" d="M31.208 28.282v-16.68l-14.24-8.34-14.239 8.34v16.68l14.24 8.34zm-14.24 11.537L0 29.88V10.003L16.969.064l16.968 9.939V29.88z" mask="url(#b)"/></g><path fill="#fffffe" d="M19.655 30.458v-2.787l8.815-5.201v-2.768l-8.815 5.15v-2.77l8.825-5.148-.001-2.403-11.51-6.742-11.51 6.742v13.483l11.51 6.742L28.48 28.01v-2.768zM55.494 28.414H42.21V15.833h12.85V18.6h-9.9v1.895h6.883v2.763H45.16v2.387h10.334zM59.456 15.833v12.581h2.95v-9.317l7.488 9.317h3.902V15.833h-2.952v9.326l-7.487-9.326z"/><g transform="translate(77.13 15.763)"><mask id="d" fill="#fff"><use xlink:href="#c"/></mask><path fill="#fffffe" d="M.16.07v2.764h5.607v9.817H8.72V2.834h5.61V.07z" mask="url(#d)"/><path fill="#fffffe" d="M71.407.07v2.764h5.606v9.817h2.952V2.834h5.61V.07z" mask="url(#d)"/></g><path fill="#fffffe" d="M97.912 18.6v2.672h6.347c1.76 0 1.917-.633 1.917-1.345 0-.805-.51-1.326-1.821-1.326zm6.867-2.772q2.018 0 3.212 1.117t1.194 2.992q0 2.989-2.708 3.822l3.269 4.65h-3.439l-3.071-4.377H97.91v4.378h-2.953V15.828zM120.717 25.993c3.84 0 4.199-1.333 4.199-2.484v-7.676h2.949v8.324c0 2.978-3.146 4.599-7.148 4.599s-7.148-1.62-7.148-4.599v-8.324h2.95v7.676c0 1.151.358 2.484 4.199 2.484zM143.742 19.499l1.841-1.972c-2.493-2.016-5.652-1.956-6.523-2.013-.872-.057-6.724-.182-6.986 3.854-.178 2.738 2.398 3.633 6.54 3.738 4.143.104 4.317.835 4.312 1.293-.005.495-.53 1.602-4.236 1.54-2.405-.04-4.466-.894-5.577-1.85l-1.65 2.193c1.943 1.565 4.424 2.348 7.508 2.348 3.71 0 6.9-.977 7.068-4.057.196-3.58-3.408-4.005-6.698-4.28-3.176-.264-4.177-.35-4.168-1.146.01-.88 2.41-.995 4.07-.9 1.936.11 3.393.605 4.499 1.252"/></g></g></svg>